<?xml version="1.0" standalone="no"?>
<!DOCTYPE svg PUBLIC "-//W3C//DTD SVG 20010904//EN"
 "http://www.w3.org/TR/2001/REC-SVG-20010904/DTD/svg10.dtd">
<svg version="1.0" xmlns="http://www.w3.org/2000/svg"
 width="198.000000pt" height="185.000000pt" viewBox="0 0 198.000000 185.000000"
 preserveAspectRatio="xMidYMid meet">
<metadata>
Created by potrace 1.16, written by Peter Selinger 2001-2019
</metadata>
<g transform="translate(0.000000,185.000000) scale(0.100000,-0.100000)"
fill="#000000" stroke="none">
<path d="M0 925 l0 -925 990 0 990 0 0 925 0 925 -990 0 -990 0 0 -925z m1187
765 c274 -71 495 -291 574 -573 34 -123 32 -307 -5 -432 -83 -277 -296 -484
-571 -556 -112 -30 -289 -30 -399 0 -470 126 -725 630 -545 1080 108 270 343
456 634 501 82 12 218 3 312 -20z"/>
<path d="M320 1259 c0 -5 7 -9 15 -9 13 0 15 -23 15 -149 0 -134 -2 -150 -17
-154 -10 -3 25 -4 77 -4 52 0 80 2 63 4 -33 4 -33 4 -33 63 l0 58 52 7 c65 9
98 39 98 90 0 47 -15 73 -48 86 -33 13 -222 19 -222 8z"/>
<path d="M940 1259 c0 -4 4 -9 10 -11 5 -1 33 -70 63 -153 48 -133 57 -150 78
-153 22 -3 26 3 43 70 35 136 34 136 70 23 27 -85 35 -100 52 -97 10 2 22 7
25 10 3 4 23 73 44 155 25 99 42 147 51 147 8 0 14 3 14 8 0 11 -79 12 -85 1
-4 -5 3 -9 14 -9 26 0 26 -4 -3 -115 l-23 -90 -32 100 c-18 59 -27 101 -21
103 5 2 10 7 10 11 0 9 -128 7 -137 -2 -3 -4 1 -7 9 -7 10 0 20 -16 27 -43 11
-36 10 -53 -4 -100 -9 -31 -18 -57 -20 -57 -2 0 -18 44 -36 97 -22 66 -28 98
-20 101 6 2 11 8 11 12 0 5 -31 9 -70 8 -38 -1 -70 -5 -70 -9z"/>
<path d="M1475 1258 c-61 -33 -74 -110 -27 -158 16 -16 46 -33 68 -39 55 -15
84 -38 84 -66 0 -27 -25 -45 -63 -45 -25 0 -69 35 -99 80 -17 25 -17 25 -17
-30 l-1 -55 85 -3 c83 -3 86 -2 115 27 25 24 30 38 30 76 0 58 -27 87 -100
109 -29 9 -59 21 -66 27 -31 26 -5 78 40 79 11 0 39 -20 63 -45 l43 -45 0 43
0 44 -46 7 c-64 8 -86 7 -109 -6z"/>
<path d="M706 1235 c-8 -8 -17 -24 -21 -34 -3 -12 -17 -21 -33 -23 -18 -2 -31
-12 -40 -30 -17 -37 1 -77 45 -98 22 -11 33 -24 37 -46 9 -45 22 -52 104 -52
62 0 74 3 87 21 8 12 15 32 15 44 0 15 6 23 18 23 53 0 92 82 57 120 -10 11
-26 20 -35 20 -10 0 -23 13 -30 30 -15 35 -50 48 -87 31 -18 -8 -29 -9 -37 -1
-15 15 -62 12 -80 -5z m147 -153 c13 -11 17 -27 15 -56 l-3 -41 -70 0 -70 0
-3 38 c-2 21 2 45 10 54 29 35 85 38 121 5z"/>
<path d="M801 830 c-6 -28 -11 -57 -11 -65 0 -8 -9 -23 -21 -34 -14 -13 -17
-21 -9 -26 7 -5 9 -25 4 -61 -5 -45 -4 -54 9 -54 11 0 19 17 27 54 12 57 22
66 83 66 l28 0 -7 -60 c-6 -51 -4 -60 10 -60 17 0 17 2 40 135 20 114 20 145
1 145 -8 0 -15 -9 -15 -19 0 -11 -5 -42 -12 -70 l-11 -51 -50 0 -49 0 8 43
c12 62 11 100 -3 104 -7 2 -15 -16 -22 -47z"/>
<path d="M1355 757 c-21 -21 -34 -46 -38 -73 -6 -39 -31 -74 -43 -61 -3 3 0
32 7 66 6 33 9 67 6 76 -8 19 -51 20 -67 0 -11 -14 -14 -13 -25 1 -19 26 -32
9 -39 -48 -7 -50 -38 -110 -50 -97 -3 3 -1 32 5 63 6 32 8 64 5 72 -11 28 -25
13 -36 -41 -11 -53 -42 -106 -54 -94 -4 4 -1 36 7 73 14 67 13 76 -8 76 -12 0
-35 -83 -35 -124 0 -32 33 -60 57 -49 10 5 41 8 69 7 50 -1 51 -1 63 35 16 43
58 111 70 111 5 0 5 -16 0 -37 -15 -65 -11 -101 12 -113 16 -9 26 -8 44 4 14
9 39 16 56 16 l32 0 -36 -27 c-57 -43 -62 -103 -8 -111 32 -5 48 13 61 68 7
31 20 54 35 64 21 14 24 13 40 -4 19 -21 60 -26 85 -10 9 5 19 5 27 -1 19 -17
31 -2 38 45 9 56 38 104 72 117 20 8 24 12 14 22 -9 9 -18 8 -41 -5 -17 -10
-32 -13 -35 -7 -11 16 -22 1 -29 -38 -11 -62 -25 -88 -57 -107 -24 -14 -33
-15 -44 -6 -22 18 -19 60 3 60 29 0 62 38 62 69 0 31 -20 45 -50 36 -18 -6
-60 -74 -60 -97 0 -8 -10 -23 -21 -34 l-22 -19 7 43 c8 56 -16 58 -44 2 -27
-53 -44 -52 -37 1 7 53 39 88 62 69 18 -15 30 -8 22 13 -11 30 -49 27 -82 -6z"/>
</g>
</svg>
